<?xml version="1.0" encoding="UTF-8"?>
<svg version="1.1" xmlns="http://www.w3.org/2000/svg" width="200" height="200">
<path d="M0 0 C66 0 132 0 200 0 C200 66 200 132 200 200 C134 200 68 200 0 200 C0 134 0 68 0 0 Z " fill="#4BA1FE" transform="translate(0,0)"/>
<path d="M0 0 C0 43.56 0 87.12 0 132 C-25.41 132 -50.82 132 -77 132 C-75.68 128.37 -74.36 124.74 -73 121 C-70.91656221 112.20347541 -70.67408716 103.26431952 -70.5859375 94.26171875 C-70.56657135 93.01493851 -70.5472052 91.76815826 -70.5272522 90.4835968 C-70.46808684 86.55163132 -70.42132571 82.61963554 -70.375 78.6875 C-70.33777688 76.00062333 -70.29782925 73.31378946 -70.2578125 70.62695312 C-70.1624381 64.08473845 -70.07721155 57.54245292 -70 51 C-68.13794922 50.96132812 -68.13794922 50.96132812 -66.23828125 50.921875 C-64.59631972 50.86557918 -62.954394 50.80823217 -61.3125 50.75 C-60.49587891 50.73582031 -59.67925781 50.72164062 -58.83789062 50.70703125 C-53.66946111 50.49778309 -50.73299753 49.91707039 -47 46 C-45.40183525 42.80367049 -45.63294548 39.47700733 -46 36 C-47.29103659 32.87433246 -48.11154923 31.45729084 -51.125 29.90625 C-54.67649172 28.78675804 -58.12053055 28.54458329 -61.8125 28.375 C-62.50537109 28.33632812 -63.19824219 28.29765625 -63.91210938 28.2578125 C-65.60767015 28.16426432 -67.30379712 28.08107636 -69 28 C-68.30233247 19.20938907 -67.28638184 11.5123498 -60.6953125 5.19140625 C-46.53506721 -4.75991821 -10.96111429 0 0 0 Z " fill="#4AA1FE" transform="translate(200,68)"/>
<path d="M0 0 C0 8.25 0 16.5 0 25 C-2.72507812 25.04898438 -5.45015625 25.09796875 -8.2578125 25.1484375 C-10.94552333 25.20270161 -13.63315691 25.25990822 -16.32080078 25.31738281 C-18.1651414 25.35527802 -20.00954608 25.39019349 -21.85400391 25.421875 C-43.83845544 24.72477946 -43.83845544 24.72477946 -62.73046875 33.6640625 C-65.49291678 37.23899524 -66.40173764 41.0143802 -67.3125 45.375 C-67.48072266 46.11105469 -67.64894531 46.84710938 -67.82226562 47.60546875 C-68.23016638 49.40023207 -68.61727586 51.19969985 -69 53 C-67.98679688 52.96519531 -66.97359375 52.93039063 -65.9296875 52.89453125 C-64.5781417 52.86637405 -63.22657781 52.83907597 -61.875 52.8125 C-61.20984375 52.78736328 -60.5446875 52.76222656 -59.859375 52.73632812 C-55.12562955 52.66671422 -52.01513788 53.51443846 -48 56 C-45.09711663 59.38669726 -44.41801753 62.53268079 -44.5703125 67 C-45.34604493 70.61068185 -47.39052182 72.45265225 -50 75 C-52.296537 76.1482685 -53.58313167 76.11561175 -56.1328125 76.09765625 C-56.93847656 76.09443359 -57.74414062 76.09121094 -58.57421875 76.08789062 C-59.83685547 76.07532227 -59.83685547 76.07532227 -61.125 76.0625 C-61.97449219 76.05798828 -62.82398438 76.05347656 -63.69921875 76.04882812 C-65.79950909 76.03702874 -67.8997633 76.01909306 -70 76 C-69.99333817 76.67857056 -69.98667633 77.35714111 -69.97981262 78.05627441 C-69.9128236 85.19550785 -69.86793893 92.33465029 -69.83520508 99.47412109 C-69.82194186 102.12957782 -69.79984412 104.78453203 -69.77368164 107.43994141 C-69.44309107 141.88618215 -69.44309107 141.88618215 -77 157 C-91.19 157 -105.38 157 -120 157 C-116.59119361 155.2955968 -114.26191831 154.57146474 -110.625 153.8125 C-106.10027056 152.55931262 -102.99685189 151.43364141 -100.31787109 147.47192383 C-92.95057615 133.65312774 -94.33705148 116.62873723 -94.25 101.5 C-94.22178683 99.01951091 -94.19185212 96.53904078 -94.16015625 94.05859375 C-94.08693359 88.03913693 -94.03492029 82.01979462 -94 76 C-95.35109863 76.04133057 -95.35109863 76.04133057 -96.72949219 76.08349609 C-97.90672852 76.10492676 -99.08396484 76.12635742 -100.296875 76.1484375 C-101.46573242 76.17599121 -102.63458984 76.20354492 -103.83886719 76.23193359 C-106.99441248 76.00040996 -108.0864807 75.83268914 -110.25 73.625 C-113.31000955 69.03498568 -113.68955368 65.45975377 -113 60 C-110.8596283 56.40723321 -108.86315641 54.50904547 -105 53 C-101.984375 52.8046875 -101.984375 52.8046875 -98.75 52.875 C-97.67234375 52.89304688 -96.5946875 52.91109375 -95.484375 52.9296875 C-94.66453125 52.95289063 -93.8446875 52.97609375 -93 53 C-93.05220703 52.12601563 -93.05220703 52.12601563 -93.10546875 51.234375 C-93.51432013 38.8520189 -89.93240429 26.40629356 -82.11328125 16.64453125 C-61.52482244 -4.91469969 -27.15652281 -0.37814653 0 0 Z " fill="#FBFDFE" transform="translate(200,43)"/>
<path d="M0 0 C3.43851046 1.71925523 5.40830057 2.95748197 7.3125 6.3125 C8.13400841 9.52385105 8.61290784 12.70971667 9 16 C9.43699219 15.11248047 9.43699219 15.11248047 9.8828125 14.20703125 C13.09180033 8.02115219 16.09691083 3.30102972 23 1 C33.45550453 0.09147325 33.45550453 0.09147325 38.1875 2.875 C41.55669604 6.82509191 41.3995224 10.17104565 41.33984375 15.23046875 C40.79164303 19.69798959 39.45994536 21.12898151 36 24 C31.96958979 25.65958068 28.2341426 26.07178348 23.9375 26.375 C19.29234518 26.80562985 16.47538042 27.69415034 13 31 C9.69820632 37.81435063 9.58778069 43.89621201 9.62890625 51.3828125 C9.6115336 53.79036607 9.59394913 56.19791813 9.57617188 58.60546875 C9.56608101 62.37551585 9.56250923 66.14546726 9.56420898 69.91552734 C9.56064095 73.57157655 9.5333167 77.22689358 9.50390625 80.8828125 C9.51618004 82.5704924 9.51618004 82.5704924 9.52870178 84.29226685 C9.46973667 90.49014261 9.20872569 94.31002402 5 99 C0.60300906 102.09584056 -4.85995159 101.72897937 -10 101 C-13.3686339 99.3920919 -15.39938463 97.15423589 -17.13517761 93.81846619 C-18.23911828 90.22071076 -18.2873024 86.81783823 -18.2746582 83.09204102 C-18.27976913 82.31090942 -18.28488007 81.52977783 -18.29014587 80.72497559 C-18.30400889 78.15120716 -18.30308765 75.5777075 -18.30078125 73.00390625 C-18.30466989 71.20938518 -18.30900491 69.41486503 -18.31376648 67.62034607 C-18.32122153 63.86202 -18.32094252 60.10378788 -18.31567383 56.34545898 C-18.30987908 51.53582079 -18.32681373 46.72656768 -18.3500185 41.91699314 C-18.36476951 38.21174379 -18.3656257 34.50658691 -18.36250877 30.8013134 C-18.36302126 29.02834243 -18.36824541 27.25536619 -18.37832069 25.48242378 C-18.39069489 23.00048103 -18.38388794 20.51928484 -18.37231445 18.03735352 C-18.37995819 17.30937057 -18.38760193 16.58138763 -18.39547729 15.8313446 C-18.34743415 11.15622554 -17.44211998 7.98084797 -15 4 C-10.60623273 0.01814841 -5.80651843 -0.79030119 0 0 Z " fill="#FCFEFE" transform="translate(60,49)"/>
<path d="M0 0 C0.66 0.66 1.32 1.32 2 2 C0.783125 1.95875 -0.43375 1.9175 -1.6875 1.875 C-5.21592456 1.875 -7.84749675 2.28045277 -11 4 C-11.33 4.66 -11.66 5.32 -12 6 C-12.66 6 -13.32 6 -14 6 C-15.24530041 9.85213651 -15.14776817 13.70010713 -15.14526367 17.70263672 C-15.14862228 18.47386871 -15.1519809 19.24510071 -15.15544128 20.03970337 C-15.1649313 22.58638118 -15.16689343 25.13299311 -15.16796875 27.6796875 C-15.17118272 29.45321683 -15.1745469 31.22674589 -15.17805481 33.00027466 C-15.18404122 36.71747451 -15.18589521 40.43465113 -15.18530273 44.15185547 C-15.18520115 48.90874727 -15.19885193 53.6654897 -15.21607494 58.42234612 C-15.22720813 62.0855477 -15.22922153 65.74871332 -15.22869301 69.41193008 C-15.22987119 71.16536092 -15.23428387 72.91879274 -15.24202538 74.67220688 C-15.25185173 77.12776827 -15.24893683 79.58300734 -15.24291992 82.03857422 C-15.24853943 82.75877747 -15.25415894 83.47898071 -15.25994873 84.2210083 C-15.23311608 88.54290047 -14.47937271 91.95927088 -13 96 C-13 96.99 -13 97.98 -13 99 C-15.77628962 96.60229533 -16.8913862 94.48827675 -18 91 C-18.19155171 88.3284002 -18.28371978 85.76216852 -18.2746582 83.09204102 C-18.27976913 82.31090942 -18.28488007 81.52977783 -18.29014587 80.72497559 C-18.30400889 78.15120716 -18.30308765 75.5777075 -18.30078125 73.00390625 C-18.30466989 71.20938518 -18.30900491 69.41486503 -18.31376648 67.62034607 C-18.32122153 63.86202 -18.32094252 60.10378788 -18.31567383 56.34545898 C-18.30987908 51.53582079 -18.32681373 46.72656768 -18.3500185 41.91699314 C-18.36476951 38.21174379 -18.3656257 34.50658691 -18.36250877 30.8013134 C-18.36302126 29.02834243 -18.36824541 27.25536619 -18.37832069 25.48242378 C-18.39069489 23.00048103 -18.38388794 20.51928484 -18.37231445 18.03735352 C-18.37995819 17.30937057 -18.38760193 16.58138763 -18.39547729 15.8313446 C-18.34743415 11.15622554 -17.44211998 7.98084797 -15 4 C-10.32278784 -0.23872352 -6.03364765 -0.28731655 0 0 Z " fill="#CEE7FB" transform="translate(60,49)"/>
<path d="M0 0 C-3 2 -3 2 -17 2 C-17.33 15.86 -17.66 29.72 -18 44 C-18.66 44 -19.32 44 -20 44 C-20 29.48 -20 14.96 -20 0 C-2 -1 -2 -1 0 0 Z " fill="#70ADF3" transform="translate(150,119)"/>
<path d="M0 0 C0.66 1.32 1.32 2.64 2 4 C3.98 3.67 5.96 3.34 8 3 C7.29875 3.5775 6.5975 4.155 5.875 4.75 C1.62438478 8.92753874 -0.52607262 14.66957915 -3 20 C-3.33 20 -3.66 20 -4 20 C-4.66 15.38 -5.32 10.76 -6 6 C-4.35 5.34 -2.7 4.68 -1 4 C-0.11306697 1.95894361 -0.11306697 1.95894361 0 0 Z " fill="#5BA2F1" transform="translate(72,48)"/>
<path d="M0 0 C0.33 0.99 0.66 1.98 1 3 C2.84464844 2.87818359 2.84464844 2.87818359 4.7265625 2.75390625 C17.11050333 2.16613762 17.11050333 2.16613762 21.49609375 4.1015625 C26.40564973 9.07233489 25.98020388 16.41778915 26 23 C23.625 24.5625 23.625 24.5625 21 26 C20.34 25.67 19.68 25.34 19 25 C19.66 24.34 20.32 23.68 21 23 C23.56044983 19.15932526 23.74524005 16.48961691 23 12 C21.70896341 8.87433246 20.88845077 7.45729084 17.875 5.90625 C14.32350828 4.78675804 10.87946945 4.54458329 7.1875 4.375 C6.49462891 4.33632812 5.80175781 4.29765625 5.08789062 4.2578125 C3.39232985 4.16426432 1.69620288 4.08107636 0 4 C0 2.68 0 1.36 0 0 Z " fill="#64A3EA" transform="translate(131,92)"/>
<path d="M0 0 C0.66 0.66 1.32 1.32 2 2 C0.783125 1.95875 -0.43375 1.9175 -1.6875 1.875 C-5.21592456 1.875 -7.84749675 2.28045277 -11 4 C-11.33 4.66 -11.66 5.32 -12 6 C-12.66 6 -13.32 6 -14 6 C-14.66 7.65 -15.32 9.3 -16 11 C-16.75 9.3125 -16.75 9.3125 -17 7 C-12.71538592 0.07870033 -7.57335691 -0.49661357 0 0 Z " fill="#DCF6FE" transform="translate(60,49)"/>
<path d="M0 0 C0.33 0 0.66 0 1 0 C1.58691304 7.48314125 -0.29601743 14.03280404 -3 21 C-3.66 21.66 -4.32 22.32 -5 23 C-4.88557539 21.39504433 -4.75805306 19.79101881 -4.625 18.1875 C-4.52058594 16.84751953 -4.52058594 16.84751953 -4.4140625 15.48046875 C-4 13 -4 13 -2 10 C-1.56261304 8.28555111 -1.19151312 6.55332216 -0.875 4.8125 C-0.62363281 3.46091797 -0.62363281 3.46091797 -0.3671875 2.08203125 C-0.24601562 1.39496094 -0.12484375 0.70789063 0 0 Z " fill="#DEF6FE" transform="translate(128,176)"/>
<path d="M0 0 C0.66 0.33 1.32 0.66 2 1 C0.71937515 2.7074998 -0.61767557 4.37373596 -2 6 C-2.66 6 -3.32 6 -4 6 C-4.33 6.99 -4.66 7.98 -5 9 C-6.32 8.34 -7.64 7.68 -9 7 C-8.06894211 6.01470572 -7.12987519 5.03697556 -6.1875 4.0625 C-5.66542969 3.51722656 -5.14335937 2.97195312 -4.60546875 2.41015625 C-3 1 -3 1 0 0 Z " fill="#5BA2F3" transform="translate(144,71)"/>
<path d="M0 0 C0 0.33 0 0.66 0 1 C-0.91523437 1.12117188 -1.83046875 1.24234375 -2.7734375 1.3671875 C-4.55621094 1.61855469 -4.55621094 1.61855469 -6.375 1.875 C-7.55835937 2.03742187 -8.74171875 2.19984375 -9.9609375 2.3671875 C-13.09566659 2.7302585 -13.09566659 2.7302585 -15 5 C-17.125 4.625 -17.125 4.625 -19 4 C-12.76335625 -0.53574091 -7.56198897 -0.44701413 0 0 Z " fill="#E2F8FE" transform="translate(95,50)"/>
<path d="M0 0 C1.50433594 0.01353516 1.50433594 0.01353516 3.0390625 0.02734375 C3.80992188 0.03894531 4.58078125 0.05054687 5.375 0.0625 C5.375 0.3925 5.375 0.7225 5.375 1.0625 C4.41787109 1.13597656 4.41787109 1.13597656 3.44140625 1.2109375 C2.61511719 1.28570312 1.78882812 1.36046875 0.9375 1.4375 C-0.29806641 1.54191406 -0.29806641 1.54191406 -1.55859375 1.6484375 C-2.58146484 1.85339844 -2.58146484 1.85339844 -3.625 2.0625 C-3.955 2.7225 -4.285 3.3825 -4.625 4.0625 C-6.605 4.0625 -8.585 4.0625 -10.625 4.0625 C-7.08123475 0.35765451 -5.12573278 -0.05960154 0 0 Z " fill="#D1E9FC" transform="translate(100.625,95.9375)"/>
<path d="M0 0 C-0.66 0.66 -1.32 1.32 -2 2 C-4.6015625 1.9765625 -4.6015625 1.9765625 -7.625 1.625 C-8.62789063 1.51414062 -9.63078125 1.40328125 -10.6640625 1.2890625 C-11.82035156 1.14597656 -11.82035156 1.14597656 -13 1 C-13 1.66 -13 2.32 -13 3 C-13.99 3 -14.98 3 -16 3 C-16 2.34 -16 1.68 -16 1 C-13.63780647 -0.18109676 -11.74989148 -0.35238516 -9.125 -0.625 C-8.26132813 -0.72039062 -7.39765625 -0.81578125 -6.5078125 -0.9140625 C-4.09358507 -0.99679303 -2.29257465 -0.71443024 0 0 Z " fill="#65A5EB" transform="translate(93,75)"/>
<path d="M0 0 C-3.14591933 2.80045623 -5.067064 3.35261589 -9.25 3.1875 C-10.14203125 3.16042969 -11.0340625 3.13335937 -11.953125 3.10546875 C-12.96632813 3.05326172 -12.96632813 3.05326172 -14 3 C-10.05730674 0.9048917 -4.23171977 -2.11585988 0 0 Z " fill="#DEF3FD" transform="translate(94,197)"/>
<path d="M0 0 C3.96 0.33 7.92 0.66 12 1 C12 1.33 12 1.66 12 2 C7.32798795 3.20568053 2.78503708 3.09382426 -2 3 C-1.34 2.01 -0.68 1.02 0 0 Z " fill="#5BA0EC" transform="translate(77,196)"/>
<path d="M0 0 C0.87491004 2.4497481 1.12900603 3.63448293 0.25 6.125 C-1 8 -1 8 -4 10 C-4.99 9.67 -5.98 9.34 -7 9 C-6.57847656 8.51789063 -6.15695313 8.03578125 -5.72265625 7.5390625 C-5.17480469 6.90742188 -4.62695312 6.27578125 -4.0625 5.625 C-3.51722656 4.99851563 -2.97195312 4.37203125 -2.41015625 3.7265625 C-0.93041376 2.04367666 -0.93041376 2.04367666 0 0 Z " fill="#D4F1FE" transform="translate(102,186)"/>
<path d="M0 0 C-0.33 0.99 -0.66 1.98 -1 3 C-6.28 3 -11.56 3 -17 3 C-17 2.34 -17 1.68 -17 1 C-16.08476563 1.01160156 -15.16953125 1.02320313 -14.2265625 1.03515625 C-13.03804687 1.04417969 -11.84953125 1.05320313 -10.625 1.0625 C-8.84996094 1.07990234 -8.84996094 1.07990234 -7.0390625 1.09765625 C-4.2882453 1.00926238 -2.63012256 0 0 0 Z " fill="#68A9ED" transform="translate(65,148)"/>
<path d="M0 0 C0.99 0.33 1.98 0.66 3 1 C1 3 1 3 -1.53125 3.265625 C-2.5109375 3.26046875 -3.490625 3.2553125 -4.5 3.25 C-5.4796875 3.25515625 -6.459375 3.2603125 -7.46875 3.265625 C-10 3 -10 3 -12 1 C-11.21753906 1.01160156 -10.43507812 1.02320313 -9.62890625 1.03515625 C-8.61699219 1.04417969 -7.60507812 1.05320313 -6.5625 1.0625 C-5.04849609 1.07990234 -5.04849609 1.07990234 -3.50390625 1.09765625 C-1.05978933 1.28612676 -1.05978933 1.28612676 0 0 Z " fill="#E2F7FE" transform="translate(60,147)"/>
<path d="M0 0 C0.98484375 0.00902344 1.9696875 0.01804687 2.984375 0.02734375 C4.10585937 0.04474609 4.10585937 0.04474609 5.25 0.0625 C5.25 0.3925 5.25 0.7225 5.25 1.0625 C4.58613281 1.11148438 3.92226562 1.16046875 3.23828125 1.2109375 C-3.4612236 1.77375812 -3.4612236 1.77375812 -9.75 4.0625 C-9.75 3.0725 -9.75 2.0825 -9.75 1.0625 C-6.43929162 0.06140485 -3.44915231 -0.04106134 0 0 Z " fill="#D6F4FE" transform="translate(83.75,73.9375)"/>
<path d="M0 0 C2 2 2 2 2.125 4.625 C2.08375 5.40875 2.0425 6.1925 2 7 C1.01 7.495 1.01 7.495 0 8 C-0.33 6.35 -0.66 4.7 -1 3 C-1.99 3.66 -2.98 4.32 -4 5 C-2.25 1.125 -2.25 1.125 0 0 Z " fill="#58A2F5" transform="translate(76,77)"/>
<path d="M0 0 C2.64850992 2.64850992 4.33103223 5.66206447 6 9 C4.35 8.67 2.7 8.34 1 8 C0.67 5.36 0.34 2.72 0 0 Z " fill="#66A1E8" transform="translate(42,140)"/>
<path d="M0 0 C0.33 0.66 0.66 1.32 1 2 C0.22265625 3.7265625 0.22265625 3.7265625 -0.9375 5.625 C-1.618125 6.73875 -2.29875 7.8525 -3 9 C-3.66 9 -4.32 9 -5 9 C-3.7508258 5.54074837 -2.32472205 2.85306797 0 0 Z " fill="#DBF5FE" transform="translate(118,60)"/>
<path d="M0 0 C1 2 1 2 1 6 C-0.65 6.66 -2.3 7.32 -4 8 C-2.25 2.25 -2.25 2.25 0 0 Z " fill="#ECFAFB" transform="translate(122,56)"/>
</svg>
